<svg width="21" height="21" viewBox="0 0 21 21" fill="none" xmlns="http://www.w3.org/2000/svg">
<g id="person_outline" clip-path="url(#clip0_121_15)">
<path id="Vector" d="M10.2935 5.37747C11.2746 5.37747 12.0696 6.1725 12.0696 7.15359C12.0696 8.13469 11.2746 8.92971 10.2935 8.92971C9.31242 8.92971 8.51739 8.13469 8.51739 7.15359C8.51739 6.1725 9.31242 5.37747 10.2935 5.37747ZM10.2935 12.9894C12.8055 12.9894 15.4527 14.2242 15.4527 14.7655V15.6959H5.13431V14.7655C5.13431 14.2242 7.78157 12.9894 10.2935 12.9894ZM10.2935 3.77051C8.42436 3.77051 6.91043 5.28444 6.91043 7.15359C6.91043 9.02275 8.42436 10.5367 10.2935 10.5367C12.1627 10.5367 13.6766 9.02275 13.6766 7.15359C13.6766 5.28444 12.1627 3.77051 10.2935 3.77051ZM10.2935 11.3824C8.0353 11.3824 3.52734 12.5158 3.52734 14.7655V16.4571C3.52734 16.9222 3.90794 17.3028 4.37311 17.3028H16.2139C16.6791 17.3028 17.0597 16.9222 17.0597 16.4571V14.7655C17.0597 12.5158 12.5517 11.3824 10.2935 11.3824Z" fill="#2841A1"/>
</g>
<defs>
<clipPath id="clip0_121_15">
<rect width="20.2985" height="20.2985" fill="white" transform="translate(0.144531 0.387695)"/>
</clipPath>
</defs>
</svg>
